<svg xmlns="http://www.w3.org/2000/svg" xmlns:xlink="http://www.w3.org/1999/xlink" width="500" zoomAndPan="magnify" viewBox="0 0 375 374.999991" height="500" preserveAspectRatio="xMidYMid meet" version="1.0"><defs><g/></defs><g fill="#ffffff" fill-opacity="1"><g transform="translate(7.697809, 258.643972)"><g><path d="M 116.546875 -148.484375 L 175.6875 -148.484375 L 122.375 -87.40625 L 176.765625 0 L 120.4375 0 L 89.5625 -54.390625 L 63.671875 -33.234375 L 63.671875 0 L 15.96875 0 L 15.96875 -148.484375 L 63.671875 -148.484375 L 63.671875 -85.03125 Z M 116.546875 -148.484375 "/></g></g></g><g fill="#ffffff" fill-opacity="1"><g transform="translate(187.488029, 258.643972)"><g><path d="M 90.640625 -151.078125 C 104.890625 -151.078125 117.695312 -148.914062 129.0625 -144.59375 C 140.425781 -140.28125 149.453125 -133.914062 156.140625 -125.5 C 162.835938 -117.082031 166.1875 -106.832031 166.1875 -94.75 L 120.640625 -94.75 C 120.640625 -100.9375 117.90625 -105.9375 112.4375 -109.75 C 106.976562 -113.5625 100.363281 -115.46875 92.59375 -115.46875 C 81.363281 -115.46875 72.867188 -112.476562 67.109375 -106.5 C 61.359375 -100.53125 58.484375 -92.082031 58.484375 -81.15625 L 58.484375 -67.34375 C 58.484375 -56.40625 61.359375 -47.945312 67.109375 -41.96875 C 72.867188 -36 81.363281 -33.015625 92.59375 -33.015625 C 100.363281 -33.015625 106.976562 -34.847656 112.4375 -38.515625 C 117.90625 -42.191406 120.640625 -46.90625 120.640625 -52.65625 L 86.984375 -52.65625 L 86.984375 -82.875 L 166.1875 -82.875 L 166.1875 0 L 141.578125 0 L 136.828125 -14.671875 C 123.304688 -3.160156 105.609375 2.59375 83.734375 2.59375 C 59.128906 2.59375 40.640625 -3.84375 28.265625 -16.71875 C 15.898438 -29.601562 9.71875 -48.78125 9.71875 -74.25 C 9.71875 -99.425781 16.726562 -118.523438 30.75 -131.546875 C 44.78125 -144.566406 64.742188 -151.078125 90.640625 -151.078125 Z M 90.640625 -151.078125 "/></g></g></g></svg>